<svg xmlns="http://www.w3.org/2000/svg" width="15.966" height="10" viewBox="0 0 15.966 10"><g transform="translate(-0.001)"><path d="M.145,5.369a.54.54,0,0,1,0-.74C2.85,1.757,5.109,0,7.974,0c3.41,0,5.994,2.424,7.862,4.629a.533.533,0,0,1-.018.718C13.986,7.3,11.409,10,7.974,10,4.5,10,2.458,7.858.145,5.369Z" transform="translate(0.001)" fill="#757e90"/><path d="M2.28.59A1.594,1.594,0,0,1,2.39,0c-.036,0-.071,0-.11,0A2.249,2.249,0,0,0,.007,2.392a2.261,2.261,0,0,0,2.1,2.045A2.259,2.259,0,0,0,4.561,2.222c0-.045,0-.09,0-.135a1.615,1.615,0,0,1-.649.135A1.632,1.632,0,0,1,2.28.59Z" transform="translate(5.702 2.778)" fill="#757e90"/></g></svg>